<svg width="126" height="126" viewBox="0 0 126 126" fill="none" xmlns="http://www.w3.org/2000/svg">
<rect width="126" height="126" rx="20" fill="#4B787F"/>
<path d="M62.5002 29.5833C58.1775 29.5833 53.8971 30.4347 49.9035 32.0889C45.9099 33.7431 42.2812 36.1677 39.2246 39.2243C33.0515 45.3974 29.5835 53.7699 29.5835 62.4999C29.5835 77.0491 39.0306 89.3928 52.0985 93.7708C53.7443 94.0341 54.271 93.0137 54.271 92.1249V86.562C45.1531 88.537 43.211 82.1512 43.211 82.1512C41.6968 78.3328 39.5572 77.3124 39.5572 77.3124C36.5618 75.2716 39.7877 75.3374 39.7877 75.3374C43.0793 75.5678 44.8239 78.7278 44.8239 78.7278C47.6877 83.7312 52.5264 82.2499 54.4027 81.4599C54.6989 79.3203 55.5547 77.872 56.4764 77.0491C49.1689 76.2262 41.4993 73.3953 41.4993 60.8541C41.4993 57.2003 42.7502 54.2708 44.8897 51.9337C44.5606 51.1108 43.4085 47.6874 45.2189 43.2437C45.2189 43.2437 47.9839 42.3549 54.271 46.6012C56.8714 45.877 59.7022 45.5149 62.5002 45.5149C65.2981 45.5149 68.1289 45.877 70.7293 46.6012C77.0164 42.3549 79.7814 43.2437 79.7814 43.2437C81.5918 47.6874 80.4397 51.1108 80.1106 51.9337C82.2502 54.2708 83.501 57.2003 83.501 60.8541C83.501 73.4283 75.7985 76.1933 68.4581 77.0162C69.6431 78.0366 70.7293 80.0445 70.7293 83.1058V92.1249C70.7293 93.0137 71.256 94.067 72.9347 93.7708C86.0027 89.3599 95.4168 77.0491 95.4168 62.4999C95.4168 58.1772 94.5654 53.8969 92.9112 49.9033C91.257 45.9096 88.8324 42.2809 85.7758 39.2243C82.7192 36.1677 79.0905 33.7431 75.0968 32.0889C71.1032 30.4347 66.8228 29.5833 62.5002 29.5833Z" fill="white"/>
</svg>
