<svg width="126" height="126" viewBox="0 0 126 126" fill="none" xmlns="http://www.w3.org/2000/svg">
<rect width="126" height="126" rx="20" fill="#4B787F"/>
<path fill-rule="evenodd" clip-rule="evenodd" d="M30.0536 58.0809L43.5569 66.7314V87.5366H31.6618C31.2377 87.5381 30.8304 87.3715 30.5289 87.0732C30.2275 86.7749 30.0566 86.3694 30.0536 85.9453V58.0809ZM44.2623 33.2015C35.0926 27.333 23 33.8787 23 44.7863V85.9453C23 90.7361 26.8936 94.5958 31.6618 94.5958H47.0837C49.0305 94.5958 50.6105 93.0158 50.6105 91.069V71.2513L60.5984 77.6503C61.1672 78.0105 61.8267 78.2017 62.5 78.2017C63.1733 78.2017 63.8328 78.0105 64.4016 77.6503L74.3895 71.2513V91.0634C74.3895 93.0158 75.9695 94.5902 77.9163 94.5902H93.3382C98.1121 94.5902 102.006 90.7305 102.006 85.9453V44.7863C102.006 36.7001 95.3584 31.0121 88.1806 31.0008C85.538 31.0044 82.9523 31.7684 80.7321 33.2015L76.0146 36.2261L75.9469 36.2769L62.5 44.8879L48.9854 36.2205L44.2623 33.2015ZM74.3951 45.644L64.4073 52.043C63.8378 52.4043 63.1773 52.5962 62.5028 52.5962C61.8284 52.5962 61.1679 52.4043 60.5984 52.043L50.6105 45.644V62.8717L62.5 70.4895L74.3895 62.8717L74.3951 45.644ZM81.4487 66.7314L94.9521 58.0809V85.9453C94.9513 86.1562 94.909 86.365 94.8274 86.5595C94.7458 86.754 94.6266 86.9305 94.4767 87.0789C94.3268 87.2272 94.149 87.3445 93.9537 87.424C93.7583 87.5036 93.5491 87.5437 93.3382 87.5422H81.4431L81.4487 66.7314Z" fill="white"/>
</svg>
