<svg width="126" height="126" viewBox="0 0 126 126" fill="none" xmlns="http://www.w3.org/2000/svg">
<rect width="126" height="126" rx="20" fill="#4B787F"/>
<path d="M45.91 23H79.09C91.73 23 102 33.27 102 45.91V79.09C102 85.1661 99.5863 90.9934 95.2898 95.2898C90.9934 99.5863 85.1661 102 79.09 102H45.91C33.27 102 23 91.73 23 79.09V45.91C23 39.8339 25.4137 34.0066 29.7102 29.7102C34.0066 25.4137 39.8339 23 45.91 23ZM45.12 30.9C41.3486 30.9 37.7317 32.3982 35.0649 35.0649C32.3982 37.7317 30.9 41.3486 30.9 45.12V79.88C30.9 87.7405 37.2595 94.1 45.12 94.1H79.88C83.6514 94.1 87.2683 92.6018 89.9351 89.9351C92.6018 87.2683 94.1 83.6514 94.1 79.88V45.12C94.1 37.2595 87.7405 30.9 79.88 30.9H45.12ZM83.2375 36.825C84.547 36.825 85.8029 37.3452 86.7288 38.2712C87.6548 39.1971 88.175 40.453 88.175 41.7625C88.175 43.072 87.6548 44.3279 86.7288 45.2538C85.8029 46.1798 84.547 46.7 83.2375 46.7C81.928 46.7 80.6721 46.1798 79.7462 45.2538C78.8202 44.3279 78.3 43.072 78.3 41.7625C78.3 40.453 78.8202 39.1971 79.7462 38.2712C80.6721 37.3452 81.928 36.825 83.2375 36.825ZM62.5 42.75C67.738 42.75 72.7615 44.8308 76.4654 48.5346C80.1692 52.2385 82.25 57.262 82.25 62.5C82.25 67.738 80.1692 72.7615 76.4654 76.4654C72.7615 80.1692 67.738 82.25 62.5 82.25C57.262 82.25 52.2385 80.1692 48.5346 76.4654C44.8308 72.7615 42.75 67.738 42.75 62.5C42.75 57.262 44.8308 52.2385 48.5346 48.5346C52.2385 44.8308 57.262 42.75 62.5 42.75ZM62.5 50.65C59.3572 50.65 56.3431 51.8985 54.1208 54.1208C51.8985 56.3431 50.65 59.3572 50.65 62.5C50.65 65.6428 51.8985 68.6569 54.1208 70.8792C56.3431 73.1015 59.3572 74.35 62.5 74.35C65.6428 74.35 68.6569 73.1015 70.8792 70.8792C73.1015 68.6569 74.35 65.6428 74.35 62.5C74.35 59.3572 73.1015 56.3431 70.8792 54.1208C68.6569 51.8985 65.6428 50.65 62.5 50.65Z" fill="white"/>
</svg>
