<svg width="126" height="126" viewBox="0 0 126 126" fill="none" xmlns="http://www.w3.org/2000/svg">
<rect width="126" height="126" rx="20" fill="#4B787F"/>
<path d="M89.8333 28.5C91.8667 28.5 93.8167 29.3077 95.2545 30.7455C96.6923 32.1833 97.5 34.1333 97.5 36.1667V89.8333C97.5 91.8667 96.6923 93.8167 95.2545 95.2545C93.8167 96.6923 91.8667 97.5 89.8333 97.5H36.1667C34.1333 97.5 32.1833 96.6923 30.7455 95.2545C29.3077 93.8167 28.5 91.8667 28.5 89.8333V36.1667C28.5 34.1333 29.3077 32.1833 30.7455 30.7455C32.1833 29.3077 34.1333 28.5 36.1667 28.5H89.8333ZM87.9167 87.9167V67.6C87.9167 64.2857 86.6001 61.1071 84.2565 58.7635C81.9129 56.4199 78.7343 55.1033 75.42 55.1033C72.1617 55.1033 68.3667 57.0967 66.5267 60.0867V55.8317H55.8317V87.9167H66.5267V69.0183C66.5267 66.0667 68.9033 63.6517 71.855 63.6517C73.2783 63.6517 74.6434 64.2171 75.6498 65.2235C76.6563 66.23 77.2217 67.595 77.2217 69.0183V87.9167H87.9167ZM43.3733 49.8133C45.0813 49.8133 46.7194 49.1348 47.9271 47.9271C49.1348 46.7194 49.8133 45.0813 49.8133 43.3733C49.8133 39.8083 46.9383 36.895 43.3733 36.895C41.6552 36.895 40.0074 37.5775 38.7925 38.7925C37.5775 40.0074 36.895 41.6552 36.895 43.3733C36.895 46.9383 39.8083 49.8133 43.3733 49.8133ZM48.7017 87.9167V55.8317H38.0833V87.9167H48.7017Z" fill="white"/>
</svg>
